<mxfile host="app.diagrams.net" modified="2021-10-01T09:36:47.825Z" agent="5.0 (Windows NT 10.0; Win64; x64) AppleWebKit/537.36 (KHTML, like Gecko) Chrome/94.0.4606.61 Safari/537.36" etag="JwFph38ljYcQWvXG6Puj" version="15.3.1" type="github">
  <diagram id="KtU2aRdOKYF484g9giqT" name="Page-1">
    <mxGraphModel dx="1059" dy="813" grid="1" gridSize="10" guides="1" tooltips="1" connect="1" arrows="1" fold="1" page="1" pageScale="1" pageWidth="1169" pageHeight="827" math="0" shadow="0">
      <root>
        <mxCell id="0" />
        <mxCell id="1" parent="0" />
        <mxCell id="4ka4wmr6u2VwpcD3s4QF-1" value="&lt;font style=&quot;font-size: 18px&quot;&gt;2. 고기 데치기&lt;/font&gt;" style="ellipse;whiteSpace=wrap;html=1;" vertex="1" parent="1">
          <mxGeometry x="437.5" y="100" width="120" height="80" as="geometry" />
        </mxCell>
        <mxCell id="4ka4wmr6u2VwpcD3s4QF-2" value="&lt;font style=&quot;font-size: 18px&quot;&gt;돼지고기&lt;br&gt;&lt;/font&gt;" style="text;html=1;strokeColor=none;fillColor=none;align=center;verticalAlign=middle;whiteSpace=wrap;rounded=0;" vertex="1" parent="1">
          <mxGeometry x="492.5" y="40" width="80" height="30" as="geometry" />
        </mxCell>
        <mxCell id="4ka4wmr6u2VwpcD3s4QF-3" value="" style="endArrow=classic;html=1;" edge="1" parent="1">
          <mxGeometry width="50" height="50" relative="1" as="geometry">
            <mxPoint x="492.22" y="20" as="sourcePoint" />
            <mxPoint x="492.22" y="90" as="targetPoint" />
          </mxGeometry>
        </mxCell>
        <mxCell id="4ka4wmr6u2VwpcD3s4QF-4" value="&lt;font style=&quot;font-size: 18px&quot;&gt;3. 고기 표면&lt;br&gt;물기 제거&lt;br&gt;&lt;/font&gt;" style="ellipse;whiteSpace=wrap;html=1;" vertex="1" parent="1">
          <mxGeometry x="680" y="100" width="120" height="80" as="geometry" />
        </mxCell>
        <mxCell id="4ka4wmr6u2VwpcD3s4QF-8" value="&lt;font style=&quot;font-size: 18px&quot;&gt;구운 고기&lt;br&gt;&lt;/font&gt;" style="text;html=1;strokeColor=none;fillColor=none;align=center;verticalAlign=middle;whiteSpace=wrap;rounded=0;" vertex="1" parent="1">
          <mxGeometry x="790" y="190" width="160" height="30" as="geometry" />
        </mxCell>
        <mxCell id="4ka4wmr6u2VwpcD3s4QF-9" value="" style="endArrow=classic;html=1;" edge="1" parent="1">
          <mxGeometry width="50" height="50" relative="1" as="geometry">
            <mxPoint x="950" y="190" as="sourcePoint" />
            <mxPoint x="900" y="250" as="targetPoint" />
            <Array as="points" />
          </mxGeometry>
        </mxCell>
        <mxCell id="4ka4wmr6u2VwpcD3s4QF-10" value="&lt;span style=&quot;font-size: 18px&quot;&gt;6. 냉장고에서&lt;br&gt;숙성하기&lt;/span&gt;" style="ellipse;whiteSpace=wrap;html=1;" vertex="1" parent="1">
          <mxGeometry x="485" y="260" width="155" height="90" as="geometry" />
        </mxCell>
        <mxCell id="4ka4wmr6u2VwpcD3s4QF-13" value="&lt;font style=&quot;font-size: 18px&quot;&gt;5, 고기 졸이기&lt;/font&gt;" style="ellipse;whiteSpace=wrap;html=1;" vertex="1" parent="1">
          <mxGeometry x="830" y="260" width="120" height="80" as="geometry" />
        </mxCell>
        <mxCell id="4ka4wmr6u2VwpcD3s4QF-14" value="&lt;font style=&quot;font-size: 18px&quot;&gt;졸여진 고기&lt;br&gt;&lt;/font&gt;" style="text;html=1;strokeColor=none;fillColor=none;align=center;verticalAlign=middle;whiteSpace=wrap;rounded=0;" vertex="1" parent="1">
          <mxGeometry x="650" y="269.5" width="160" height="30" as="geometry" />
        </mxCell>
        <mxCell id="4ka4wmr6u2VwpcD3s4QF-15" value="" style="endArrow=classic;html=1;" edge="1" parent="1">
          <mxGeometry width="50" height="50" relative="1" as="geometry">
            <mxPoint x="810" y="303.12" as="sourcePoint" />
            <mxPoint x="650" y="302.83" as="targetPoint" />
          </mxGeometry>
        </mxCell>
        <mxCell id="4ka4wmr6u2VwpcD3s4QF-19" value="" style="endArrow=classic;html=1;" edge="1" parent="1">
          <mxGeometry width="50" height="50" relative="1" as="geometry">
            <mxPoint x="1100" y="300" as="sourcePoint" />
            <mxPoint x="970" y="300" as="targetPoint" />
          </mxGeometry>
        </mxCell>
        <mxCell id="4ka4wmr6u2VwpcD3s4QF-21" value="" style="endArrow=classic;html=1;" edge="1" parent="1">
          <mxGeometry width="50" height="50" relative="1" as="geometry">
            <mxPoint x="470" y="310" as="sourcePoint" />
            <mxPoint x="300" y="310" as="targetPoint" />
            <Array as="points">
              <mxPoint x="350" y="310" />
            </Array>
          </mxGeometry>
        </mxCell>
        <mxCell id="4ka4wmr6u2VwpcD3s4QF-23" value="&lt;font style=&quot;font-size: 18px&quot;&gt;숙성된 고기&lt;br&gt;&lt;/font&gt;" style="text;html=1;strokeColor=none;fillColor=none;align=center;verticalAlign=middle;whiteSpace=wrap;rounded=0;" vertex="1" parent="1">
          <mxGeometry x="320" y="274.5" width="160" height="30" as="geometry" />
        </mxCell>
        <mxCell id="4ka4wmr6u2VwpcD3s4QF-24" value="&lt;span style=&quot;font-size: 18px&quot;&gt;7. 데우기&lt;br&gt;&lt;/span&gt;" style="ellipse;whiteSpace=wrap;html=1;" vertex="1" parent="1">
          <mxGeometry x="162.5" y="270" width="120" height="80" as="geometry" />
        </mxCell>
        <mxCell id="4ka4wmr6u2VwpcD3s4QF-25" value="&lt;font style=&quot;font-size: 18px&quot;&gt;데워진 고기&lt;br&gt;&lt;/font&gt;" style="text;html=1;strokeColor=none;fillColor=none;align=center;verticalAlign=middle;whiteSpace=wrap;rounded=0;" vertex="1" parent="1">
          <mxGeometry x="377.5" y="385" width="160" height="30" as="geometry" />
        </mxCell>
        <mxCell id="4ka4wmr6u2VwpcD3s4QF-26" value="" style="endArrow=classic;html=1;" edge="1" parent="1">
          <mxGeometry width="50" height="50" relative="1" as="geometry">
            <mxPoint x="280" y="350" as="sourcePoint" />
            <mxPoint x="537.5" y="488.29" as="targetPoint" />
          </mxGeometry>
        </mxCell>
        <mxCell id="4ka4wmr6u2VwpcD3s4QF-27" value="" style="endArrow=classic;html=1;" edge="1" parent="1">
          <mxGeometry width="50" height="50" relative="1" as="geometry">
            <mxPoint x="312.5" y="60" as="sourcePoint" />
            <mxPoint x="427.5" y="110" as="targetPoint" />
          </mxGeometry>
        </mxCell>
        <mxCell id="4ka4wmr6u2VwpcD3s4QF-28" value="&lt;font style=&quot;font-size: 18px&quot;&gt;통후추&lt;/font&gt;" style="text;html=1;strokeColor=none;fillColor=none;align=center;verticalAlign=middle;whiteSpace=wrap;rounded=0;" vertex="1" parent="1">
          <mxGeometry x="362.5" y="60" width="70" height="30" as="geometry" />
        </mxCell>
        <mxCell id="4ka4wmr6u2VwpcD3s4QF-29" value="" style="endArrow=classic;html=1;" edge="1" parent="1">
          <mxGeometry width="50" height="50" relative="1" as="geometry">
            <mxPoint x="290" y="190" as="sourcePoint" />
            <mxPoint x="427.5" y="160" as="targetPoint" />
          </mxGeometry>
        </mxCell>
        <mxCell id="4ka4wmr6u2VwpcD3s4QF-30" value="&lt;font style=&quot;font-size: 18px&quot;&gt;월계수잎&lt;/font&gt;" style="text;html=1;strokeColor=none;fillColor=none;align=center;verticalAlign=middle;whiteSpace=wrap;rounded=0;" vertex="1" parent="1">
          <mxGeometry x="327.5" y="180" width="90" height="30" as="geometry" />
        </mxCell>
        <mxCell id="4ka4wmr6u2VwpcD3s4QF-31" value="" style="endArrow=classic;html=1;" edge="1" parent="1">
          <mxGeometry width="50" height="50" relative="1" as="geometry">
            <mxPoint x="400" y="20" as="sourcePoint" />
            <mxPoint x="458" y="90" as="targetPoint" />
          </mxGeometry>
        </mxCell>
        <mxCell id="4ka4wmr6u2VwpcD3s4QF-32" value="&lt;font style=&quot;font-size: 18px&quot;&gt;맛술&lt;/font&gt;" style="text;html=1;strokeColor=none;fillColor=none;align=center;verticalAlign=middle;whiteSpace=wrap;rounded=0;" vertex="1" parent="1">
          <mxGeometry x="422.5" y="30" width="70" height="30" as="geometry" />
        </mxCell>
        <mxCell id="4ka4wmr6u2VwpcD3s4QF-33" value="&lt;font style=&quot;font-size: 18px&quot;&gt;간장&lt;/font&gt;" style="text;html=1;align=center;verticalAlign=middle;resizable=0;points=[];autosize=1;strokeColor=none;fillColor=none;" vertex="1" parent="1">
          <mxGeometry x="1010" y="274.5" width="50" height="20" as="geometry" />
        </mxCell>
        <mxCell id="4ka4wmr6u2VwpcD3s4QF-34" value="" style="endArrow=classic;html=1;" edge="1" parent="1">
          <mxGeometry width="50" height="50" relative="1" as="geometry">
            <mxPoint x="1090" y="340" as="sourcePoint" />
            <mxPoint x="960" y="320" as="targetPoint" />
          </mxGeometry>
        </mxCell>
        <mxCell id="4ka4wmr6u2VwpcD3s4QF-35" value="&lt;font style=&quot;font-size: 18px&quot;&gt;맛술&lt;/font&gt;" style="text;html=1;align=center;verticalAlign=middle;resizable=0;points=[];autosize=1;strokeColor=none;fillColor=none;" vertex="1" parent="1">
          <mxGeometry x="1010" y="304.5" width="50" height="20" as="geometry" />
        </mxCell>
        <mxCell id="4ka4wmr6u2VwpcD3s4QF-36" value="" style="endArrow=classic;html=1;" edge="1" parent="1">
          <mxGeometry width="50" height="50" relative="1" as="geometry">
            <mxPoint x="1050" y="400" as="sourcePoint" />
            <mxPoint x="950" y="340" as="targetPoint" />
          </mxGeometry>
        </mxCell>
        <mxCell id="4ka4wmr6u2VwpcD3s4QF-37" value="&lt;font style=&quot;font-size: 18px&quot;&gt;끓는 물&lt;/font&gt;" style="text;html=1;align=center;verticalAlign=middle;resizable=0;points=[];autosize=1;strokeColor=none;fillColor=none;" vertex="1" parent="1">
          <mxGeometry x="1010" y="350" width="70" height="20" as="geometry" />
        </mxCell>
        <mxCell id="4ka4wmr6u2VwpcD3s4QF-41" value="&lt;font style=&quot;font-size: 18px&quot;&gt;올리고당&lt;/font&gt;" style="text;html=1;align=center;verticalAlign=middle;resizable=0;points=[];autosize=1;strokeColor=none;fillColor=none;" vertex="1" parent="1">
          <mxGeometry x="930" y="210" width="90" height="20" as="geometry" />
        </mxCell>
        <mxCell id="4ka4wmr6u2VwpcD3s4QF-42" value="" style="endArrow=classic;html=1;" edge="1" parent="1">
          <mxGeometry width="50" height="50" relative="1" as="geometry">
            <mxPoint x="1090" y="250" as="sourcePoint" />
            <mxPoint x="960" y="280" as="targetPoint" />
          </mxGeometry>
        </mxCell>
        <mxCell id="4ka4wmr6u2VwpcD3s4QF-43" value="&lt;font style=&quot;font-size: 18px&quot;&gt;설탕&lt;/font&gt;" style="text;html=1;align=center;verticalAlign=middle;resizable=0;points=[];autosize=1;strokeColor=none;fillColor=none;" vertex="1" parent="1">
          <mxGeometry x="990" y="240" width="50" height="20" as="geometry" />
        </mxCell>
        <mxCell id="4ka4wmr6u2VwpcD3s4QF-44" value="" style="endArrow=classic;html=1;" edge="1" parent="1">
          <mxGeometry width="50" height="50" relative="1" as="geometry">
            <mxPoint x="980" y="410" as="sourcePoint" />
            <mxPoint x="920" y="344" as="targetPoint" />
          </mxGeometry>
        </mxCell>
        <mxCell id="4ka4wmr6u2VwpcD3s4QF-46" value="" style="endArrow=classic;html=1;" edge="1" parent="1">
          <mxGeometry width="50" height="50" relative="1" as="geometry">
            <mxPoint x="102.5" y="688.29" as="sourcePoint" />
            <mxPoint x="222.5" y="688.29" as="targetPoint" />
          </mxGeometry>
        </mxCell>
        <mxCell id="4ka4wmr6u2VwpcD3s4QF-47" value="&lt;font style=&quot;font-size: 18px&quot;&gt;물&lt;/font&gt;" style="text;html=1;align=center;verticalAlign=middle;resizable=0;points=[];autosize=1;strokeColor=none;fillColor=none;" vertex="1" parent="1">
          <mxGeometry x="147.5" y="658.29" width="30" height="20" as="geometry" />
        </mxCell>
        <mxCell id="4ka4wmr6u2VwpcD3s4QF-48" value="&lt;span style=&quot;font-size: 18px&quot;&gt;9. 물 끓이기&lt;br&gt;&lt;/span&gt;" style="ellipse;whiteSpace=wrap;html=1;" vertex="1" parent="1">
          <mxGeometry x="242.5" y="648.29" width="120" height="80" as="geometry" />
        </mxCell>
        <mxCell id="4ka4wmr6u2VwpcD3s4QF-49" value="" style="endArrow=classic;html=1;" edge="1" parent="1">
          <mxGeometry width="50" height="50" relative="1" as="geometry">
            <mxPoint x="382.5" y="688.2899999999998" as="sourcePoint" />
            <mxPoint x="502.5" y="688.2899999999998" as="targetPoint" />
          </mxGeometry>
        </mxCell>
        <mxCell id="4ka4wmr6u2VwpcD3s4QF-50" value="&lt;font style=&quot;font-size: 18px&quot;&gt;끓는 물&lt;/font&gt;" style="text;html=1;align=center;verticalAlign=middle;resizable=0;points=[];autosize=1;strokeColor=none;fillColor=none;" vertex="1" parent="1">
          <mxGeometry x="407.5" y="658.29" width="70" height="20" as="geometry" />
        </mxCell>
        <mxCell id="4ka4wmr6u2VwpcD3s4QF-51" value="&lt;span style=&quot;font-size: 18px&quot;&gt;10. 면 삶기&lt;br&gt;&lt;/span&gt;" style="ellipse;whiteSpace=wrap;html=1;" vertex="1" parent="1">
          <mxGeometry x="532.5" y="648.29" width="120" height="80" as="geometry" />
        </mxCell>
        <mxCell id="4ka4wmr6u2VwpcD3s4QF-52" value="" style="endArrow=classic;html=1;" edge="1" parent="1">
          <mxGeometry width="50" height="50" relative="1" as="geometry">
            <mxPoint x="102.5" y="538.2899999999997" as="sourcePoint" />
            <mxPoint x="222.5" y="538.2899999999997" as="targetPoint" />
          </mxGeometry>
        </mxCell>
        <mxCell id="4ka4wmr6u2VwpcD3s4QF-53" value="&lt;font style=&quot;font-size: 18px&quot;&gt;돼지 등뼈 육수&lt;/font&gt;" style="text;html=1;align=center;verticalAlign=middle;resizable=0;points=[];autosize=1;strokeColor=none;fillColor=none;" vertex="1" parent="1">
          <mxGeometry x="97.5" y="508.29" width="130" height="20" as="geometry" />
        </mxCell>
        <mxCell id="4ka4wmr6u2VwpcD3s4QF-54" value="&lt;span style=&quot;font-size: 18px&quot;&gt;8. 육수 데우기&lt;br&gt;&lt;/span&gt;" style="ellipse;whiteSpace=wrap;html=1;" vertex="1" parent="1">
          <mxGeometry x="242.5" y="498.29" width="120" height="80" as="geometry" />
        </mxCell>
        <mxCell id="4ka4wmr6u2VwpcD3s4QF-55" value="" style="endArrow=classic;html=1;" edge="1" parent="1">
          <mxGeometry width="50" height="50" relative="1" as="geometry">
            <mxPoint x="382.5" y="538.2899999999997" as="sourcePoint" />
            <mxPoint x="502.5" y="538.2899999999997" as="targetPoint" />
          </mxGeometry>
        </mxCell>
        <mxCell id="4ka4wmr6u2VwpcD3s4QF-56" value="&lt;font style=&quot;font-size: 18px&quot;&gt;데워진 육수&lt;/font&gt;" style="text;html=1;align=center;verticalAlign=middle;resizable=0;points=[];autosize=1;strokeColor=none;fillColor=none;" vertex="1" parent="1">
          <mxGeometry x="387.5" y="508.29" width="110" height="20" as="geometry" />
        </mxCell>
        <mxCell id="4ka4wmr6u2VwpcD3s4QF-58" value="&lt;span style=&quot;font-size: 18px&quot;&gt;11. 그릇에 담기&lt;br&gt;&lt;/span&gt;" style="ellipse;whiteSpace=wrap;html=1;" vertex="1" parent="1">
          <mxGeometry x="532.5" y="498.29" width="167.5" height="80" as="geometry" />
        </mxCell>
        <mxCell id="4ka4wmr6u2VwpcD3s4QF-60" value="" style="endArrow=classic;html=1;" edge="1" parent="1">
          <mxGeometry width="50" height="50" relative="1" as="geometry">
            <mxPoint x="592.3" y="638.29" as="sourcePoint" />
            <mxPoint x="592.3" y="588.29" as="targetPoint" />
          </mxGeometry>
        </mxCell>
        <mxCell id="4ka4wmr6u2VwpcD3s4QF-61" value="&lt;font style=&quot;font-size: 18px&quot;&gt;삶아진 면&lt;/font&gt;" style="text;html=1;align=center;verticalAlign=middle;resizable=0;points=[];autosize=1;strokeColor=none;fillColor=none;" vertex="1" parent="1">
          <mxGeometry x="497.5" y="608.29" width="90" height="20" as="geometry" />
        </mxCell>
        <mxCell id="4ka4wmr6u2VwpcD3s4QF-62" value="" style="endArrow=classic;html=1;" edge="1" parent="1">
          <mxGeometry width="50" height="50" relative="1" as="geometry">
            <mxPoint x="437.5" y="748.2899999999997" as="sourcePoint" />
            <mxPoint x="532.5" y="718.29" as="targetPoint" />
          </mxGeometry>
        </mxCell>
        <mxCell id="4ka4wmr6u2VwpcD3s4QF-63" value="&lt;font style=&quot;font-size: 18px&quot;&gt;면&lt;/font&gt;" style="text;html=1;align=center;verticalAlign=middle;resizable=0;points=[];autosize=1;strokeColor=none;fillColor=none;" vertex="1" parent="1">
          <mxGeometry x="457.5" y="708.29" width="30" height="20" as="geometry" />
        </mxCell>
        <mxCell id="4ka4wmr6u2VwpcD3s4QF-65" value="" style="endArrow=classic;html=1;" edge="1" parent="1">
          <mxGeometry width="50" height="50" relative="1" as="geometry">
            <mxPoint x="22.5" y="135" as="sourcePoint" />
            <mxPoint x="142.5" y="135" as="targetPoint" />
          </mxGeometry>
        </mxCell>
        <mxCell id="4ka4wmr6u2VwpcD3s4QF-66" value="&lt;font style=&quot;font-size: 18px&quot;&gt;물&lt;/font&gt;" style="text;html=1;align=center;verticalAlign=middle;resizable=0;points=[];autosize=1;strokeColor=none;fillColor=none;" vertex="1" parent="1">
          <mxGeometry x="67.5" y="105" width="30" height="20" as="geometry" />
        </mxCell>
        <mxCell id="4ka4wmr6u2VwpcD3s4QF-67" value="&lt;span style=&quot;font-size: 18px&quot;&gt;1. 물 끓이기&lt;br&gt;&lt;/span&gt;" style="ellipse;whiteSpace=wrap;html=1;" vertex="1" parent="1">
          <mxGeometry x="162.5" y="95" width="120" height="80" as="geometry" />
        </mxCell>
        <mxCell id="4ka4wmr6u2VwpcD3s4QF-68" value="" style="endArrow=classic;html=1;" edge="1" parent="1">
          <mxGeometry width="50" height="50" relative="1" as="geometry">
            <mxPoint x="302.5000000000002" y="135" as="sourcePoint" />
            <mxPoint x="422.5000000000002" y="135" as="targetPoint" />
          </mxGeometry>
        </mxCell>
        <mxCell id="4ka4wmr6u2VwpcD3s4QF-69" value="&lt;font style=&quot;font-size: 18px&quot;&gt;끓는 물&lt;/font&gt;" style="text;html=1;align=center;verticalAlign=middle;resizable=0;points=[];autosize=1;strokeColor=none;fillColor=none;" vertex="1" parent="1">
          <mxGeometry x="327.5" y="105" width="70" height="20" as="geometry" />
        </mxCell>
        <mxCell id="4ka4wmr6u2VwpcD3s4QF-73" value="" style="endArrow=classic;html=1;" edge="1" parent="1">
          <mxGeometry width="50" height="50" relative="1" as="geometry">
            <mxPoint x="1040" y="220" as="sourcePoint" />
            <mxPoint x="930" y="260" as="targetPoint" />
          </mxGeometry>
        </mxCell>
        <mxCell id="4ka4wmr6u2VwpcD3s4QF-76" value="&lt;span style=&quot;font-size: 18px&quot;&gt;5. 물 끓이기&lt;br&gt;&lt;/span&gt;" style="ellipse;whiteSpace=wrap;html=1;" vertex="1" parent="1">
          <mxGeometry x="1049" y="385" width="120" height="80" as="geometry" />
        </mxCell>
        <mxCell id="4ka4wmr6u2VwpcD3s4QF-77" value="" style="endArrow=classic;html=1;" edge="1" parent="1">
          <mxGeometry width="50" height="50" relative="1" as="geometry">
            <mxPoint x="1123.68" y="540" as="sourcePoint" />
            <mxPoint x="1123.4800000000002" y="470" as="targetPoint" />
          </mxGeometry>
        </mxCell>
        <mxCell id="4ka4wmr6u2VwpcD3s4QF-78" value="&lt;font style=&quot;font-size: 18px&quot;&gt;물&lt;/font&gt;" style="text;html=1;align=center;verticalAlign=middle;resizable=0;points=[];autosize=1;strokeColor=none;fillColor=none;" vertex="1" parent="1">
          <mxGeometry x="1093.68" y="490" width="30" height="20" as="geometry" />
        </mxCell>
        <mxCell id="4ka4wmr6u2VwpcD3s4QF-79" value="&lt;font style=&quot;font-size: 18px&quot;&gt;물기 제거된 고기&lt;br&gt;&lt;/font&gt;" style="text;html=1;strokeColor=none;fillColor=none;align=center;verticalAlign=middle;whiteSpace=wrap;rounded=0;" vertex="1" parent="1">
          <mxGeometry x="807.5" y="100" width="100" height="30" as="geometry" />
        </mxCell>
        <mxCell id="4ka4wmr6u2VwpcD3s4QF-80" value="" style="endArrow=classic;html=1;" edge="1" parent="1">
          <mxGeometry width="50" height="50" relative="1" as="geometry">
            <mxPoint x="810" y="139.3099999999999" as="sourcePoint" />
            <mxPoint x="920" y="140" as="targetPoint" />
          </mxGeometry>
        </mxCell>
        <mxCell id="4ka4wmr6u2VwpcD3s4QF-81" value="&lt;font style=&quot;font-size: 18px&quot;&gt;4. 고기 겉면&lt;br&gt;굽기&lt;br&gt;&lt;/font&gt;" style="ellipse;whiteSpace=wrap;html=1;" vertex="1" parent="1">
          <mxGeometry x="930" y="105" width="120" height="80" as="geometry" />
        </mxCell>
        <mxCell id="4ka4wmr6u2VwpcD3s4QF-85" value="&lt;span style=&quot;font-size: 18px&quot;&gt;대파 씻기&lt;br&gt;&lt;/span&gt;" style="ellipse;whiteSpace=wrap;html=1;" vertex="1" parent="1">
          <mxGeometry x="950" y="578.29" width="125" height="80" as="geometry" />
        </mxCell>
        <mxCell id="4ka4wmr6u2VwpcD3s4QF-86" value="" style="endArrow=classic;html=1;" edge="1" parent="1">
          <mxGeometry width="50" height="50" relative="1" as="geometry">
            <mxPoint x="1000" y="570" as="sourcePoint" />
            <mxPoint x="990" y="510" as="targetPoint" />
          </mxGeometry>
        </mxCell>
        <mxCell id="4ka4wmr6u2VwpcD3s4QF-87" value="&lt;font style=&quot;font-size: 18px&quot;&gt;씻은 대파&lt;/font&gt;" style="text;html=1;align=center;verticalAlign=middle;resizable=0;points=[];autosize=1;strokeColor=none;fillColor=none;" vertex="1" parent="1">
          <mxGeometry x="1000" y="528.29" width="90" height="20" as="geometry" />
        </mxCell>
        <mxCell id="4ka4wmr6u2VwpcD3s4QF-88" value="" style="endArrow=classic;html=1;" edge="1" parent="1">
          <mxGeometry width="50" height="50" relative="1" as="geometry">
            <mxPoint x="810" y="401.71000000000004" as="sourcePoint" />
            <mxPoint x="835" y="340" as="targetPoint" />
          </mxGeometry>
        </mxCell>
        <mxCell id="4ka4wmr6u2VwpcD3s4QF-89" value="&lt;font style=&quot;font-size: 18px&quot;&gt;통마늘&lt;/font&gt;" style="text;html=1;align=center;verticalAlign=middle;resizable=0;points=[];autosize=1;strokeColor=none;fillColor=none;" vertex="1" parent="1">
          <mxGeometry x="750" y="359.99999999999994" width="70" height="20" as="geometry" />
        </mxCell>
        <mxCell id="4ka4wmr6u2VwpcD3s4QF-91" value="" style="endArrow=classic;html=1;" edge="1" parent="1">
          <mxGeometry width="50" height="50" relative="1" as="geometry">
            <mxPoint x="1070" y="728.29" as="sourcePoint" />
            <mxPoint x="1030" y="670.29" as="targetPoint" />
          </mxGeometry>
        </mxCell>
        <mxCell id="4ka4wmr6u2VwpcD3s4QF-92" value="&lt;font style=&quot;font-size: 18px&quot;&gt;대파&lt;/font&gt;" style="text;html=1;align=center;verticalAlign=middle;resizable=0;points=[];autosize=1;strokeColor=none;fillColor=none;" vertex="1" parent="1">
          <mxGeometry x="1050" y="688.29" width="50" height="20" as="geometry" />
        </mxCell>
        <mxCell id="4ka4wmr6u2VwpcD3s4QF-93" value="" style="endArrow=classic;html=1;" edge="1" parent="1">
          <mxGeometry width="50" height="50" relative="1" as="geometry">
            <mxPoint x="710" y="540" as="sourcePoint" />
            <mxPoint x="800" y="678" as="targetPoint" />
            <Array as="points">
              <mxPoint x="800" y="540" />
            </Array>
          </mxGeometry>
        </mxCell>
        <mxCell id="4ka4wmr6u2VwpcD3s4QF-94" value="&lt;font style=&quot;font-size: 18px&quot;&gt;완성된 돈코츠라멘&lt;/font&gt;" style="text;html=1;align=center;verticalAlign=middle;resizable=0;points=[];autosize=1;strokeColor=none;fillColor=none;" vertex="1" parent="1">
          <mxGeometry x="640" y="610" width="160" height="20" as="geometry" />
        </mxCell>
        <mxCell id="4ka4wmr6u2VwpcD3s4QF-95" value="&lt;font style=&quot;font-size: 18px&quot;&gt;데친 고기&lt;br&gt;&lt;/font&gt;" style="text;html=1;strokeColor=none;fillColor=none;align=center;verticalAlign=middle;whiteSpace=wrap;rounded=0;" vertex="1" parent="1">
          <mxGeometry x="569.38" y="110" width="93.75" height="30" as="geometry" />
        </mxCell>
        <mxCell id="4ka4wmr6u2VwpcD3s4QF-96" value="" style="endArrow=classic;html=1;" edge="1" parent="1">
          <mxGeometry width="50" height="50" relative="1" as="geometry">
            <mxPoint x="563.75" y="139.5" as="sourcePoint" />
            <mxPoint x="668.75" y="140.5" as="targetPoint" />
          </mxGeometry>
        </mxCell>
        <mxCell id="4ka4wmr6u2VwpcD3s4QF-99" value="" style="endArrow=classic;html=1;" edge="1" parent="1">
          <mxGeometry width="50" height="50" relative="1" as="geometry">
            <mxPoint x="1010.2000000000003" y="740" as="sourcePoint" />
            <mxPoint x="1010.0000000000005" y="670" as="targetPoint" />
          </mxGeometry>
        </mxCell>
        <mxCell id="4ka4wmr6u2VwpcD3s4QF-100" value="&lt;font style=&quot;font-size: 18px&quot;&gt;물&lt;/font&gt;" style="text;html=1;align=center;verticalAlign=middle;resizable=0;points=[];autosize=1;strokeColor=none;fillColor=none;" vertex="1" parent="1">
          <mxGeometry x="978.7700000000001" y="683.29" width="30" height="20" as="geometry" />
        </mxCell>
        <mxCell id="4ka4wmr6u2VwpcD3s4QF-101" value="&lt;span style=&quot;font-size: 18px&quot;&gt;대파 적당히&lt;br&gt;썰기&lt;br&gt;&lt;/span&gt;" style="ellipse;whiteSpace=wrap;html=1;" vertex="1" parent="1">
          <mxGeometry x="915" y="419.99999999999994" width="125" height="80" as="geometry" />
        </mxCell>
        <mxCell id="4ka4wmr6u2VwpcD3s4QF-102" value="&lt;span style=&quot;font-size: 18px&quot;&gt;적당한 크기로&lt;br&gt;썰은 대파&lt;/span&gt;" style="text;html=1;align=center;verticalAlign=middle;resizable=0;points=[];autosize=1;strokeColor=none;fillColor=none;" vertex="1" parent="1">
          <mxGeometry x="830" y="379.99999999999994" width="130" height="40" as="geometry" />
        </mxCell>
      </root>
    </mxGraphModel>
  </diagram>
</mxfile>
